# xmcd CD database file
#
# Track frame offsets:
#	150
#	16577
#	33647
#	51186
#	64947
#	76479
#	91291
#	106660
#	122114
#	137472
#	151778
#	163974
#
# Disc length: 2366 seconds
#
# Revision: 2
# Processed by: cddbd v1.5.1PL0 Copyright (c) Steve Scherf et al.
# Submitted via: CDex 1.51
#
DISCID=90093c0c
DTITLE=Samson and Gert - Samson
DYEAR=1991
DGENRE=
TTITLE0=Er zit meer in een liedje
TTITLE1=Ik wil niet in bad
TTITLE2=Slaapliedje
TTITLE3=Vissen
TTITLE4=Samsonrock
TTITLE5=Niet ver weg
TTITLE6=Feest vandaag
TTITLE7=Ik ben de sigaar
TTITLE8=De wijde wereld
TTITLE9=Verliefd zijn
TTITLE10=Neefje Kwik
TTITLE11=Samsonlied
EXTD=YEAR: 1991
EXTT0=
EXTT1=
EXTT2=
EXTT3=
EXTT4=
EXTT5=
EXTT6=
EXTT7=
EXTT8=
EXTT9=
EXTT10=
EXTT11=
PLAYORDER=
